<svg width="49" height="49" viewBox="0 0 49 49" fill="none" xmlns="http://www.w3.org/2000/svg">
<path fill-rule="evenodd" clip-rule="evenodd" d="M32.48 16.146C32.622 16.0093 32.7896 15.902 32.9732 15.8301C33.1567 15.7583 33.3526 15.7233 33.5497 15.7272C33.7468 15.7311 33.9411 15.7738 34.1217 15.8529C34.3023 15.9319 34.4655 16.0458 34.602 16.188L41.582 23.462C41.8497 23.7413 41.9991 24.1131 41.9991 24.5C41.9991 24.8868 41.8497 25.2587 41.582 25.538L34.602 32.812C34.4655 32.9541 34.3025 33.0679 34.122 33.147C33.9416 33.226 33.7474 33.2688 33.5504 33.2728C33.3534 33.2768 33.1576 33.2419 32.9741 33.1702C32.7907 33.0986 32.6231 32.9914 32.481 32.855C32.3389 32.7185 32.2251 32.5555 32.146 32.375C32.067 32.1946 32.0242 32.0004 32.0202 31.8034C32.0162 31.6064 32.0511 31.4106 32.1227 31.2271C32.1944 31.0437 32.3015 30.8761 32.438 30.734L36.98 26H23.046C22.6482 26 22.2666 25.842 21.9853 25.5607C21.704 25.2793 21.546 24.8978 21.546 24.5C21.546 24.1022 21.704 23.7206 21.9853 23.4393C22.2666 23.158 22.6482 23 23.046 23H36.982L32.438 18.266C32.1628 17.979 32.0129 17.5944 32.0212 17.1969C32.0294 16.7994 32.1952 16.4214 32.482 16.146" fill="white"/>
<path fill-rule="evenodd" clip-rule="evenodd" d="M7 8.5C7 8.10218 7.15804 7.72064 7.43934 7.43934C7.72064 7.15804 8.10218 7 8.5 7H27.41C27.8078 7 28.1894 7.15804 28.4707 7.43934C28.752 7.72064 28.91 8.10218 28.91 8.5V14.5C28.91 14.8978 28.752 15.2794 28.4707 15.5607C28.1894 15.842 27.8078 16 27.41 16C27.0122 16 26.6306 15.842 26.3493 15.5607C26.068 15.2794 25.91 14.8978 25.91 14.5V10H10V39H25.908V34.5C25.908 34.1022 26.066 33.7206 26.3473 33.4393C26.6286 33.158 27.0102 33 27.408 33C27.8058 33 28.1874 33.158 28.4687 33.4393C28.75 33.7206 28.908 34.1022 28.908 34.5V40.5C28.908 40.8978 28.75 41.2794 28.4687 41.5607C28.1874 41.842 27.8058 42 27.408 42H8.5C8.10218 42 7.72064 41.842 7.43934 41.5607C7.15804 41.2794 7 40.8978 7 40.5V8.5Z" fill="white"/>
</svg>
