<svg width="259" height="42" viewBox="0 0 259 42" fill="none" xmlns="http://www.w3.org/2000/svg">
<path d="M5.76 20.184C5.12 20.0133 4.39467 19.672 3.584 19.16C2.77333 18.6053 2.06933 17.9227 1.472 17.112C0.874667 16.2587 0.576 15.32 0.576 14.296C0.576 13.8267 0.661333 13.3573 0.832 12.888C0.832 12.8453 0.832 12.696 0.832 12.44C0.874667 12.184 0.917333 11.9707 0.96 11.8C1.42933 9.66667 2.51733 7.91733 4.224 6.552C5.93067 5.144 8.02133 4.056 10.496 3.288C12.9707 2.52 15.552 2.05066 18.24 1.88C18.7947 1.83733 19.328 1.816 19.84 1.816C20.352 1.77333 20.8427 1.752 21.312 1.752C24 1.752 26.4533 1.944 28.672 2.328C30.8907 2.66933 33.088 3.032 35.264 3.416C37.44 3.8 39.808 4.03466 42.368 4.12C42.9227 3.43733 43.456 2.94666 43.968 2.648C44.5227 2.30666 44.9493 2.11466 45.248 2.072C45.376 2.02933 45.5467 2.008 45.76 2.008C46.1867 2.008 46.5707 2.11467 46.912 2.328C47.2533 2.54133 47.424 2.81867 47.424 3.16C47.424 3.45867 47.2533 3.77866 46.912 4.12C46.6133 4.41866 46.1867 4.76 45.632 5.144C45.0773 5.528 44.5013 6.01866 43.904 6.616C43.136 7.34133 42.432 8.17333 41.792 9.112C41.1947 10.008 40.896 10.904 40.896 11.8C40.896 12.4827 41.0667 13.0587 41.408 13.528C41.4507 13.5707 41.472 13.6347 41.472 13.72C41.472 14.0187 41.3013 14.168 40.96 14.168C40.704 14.168 40.448 14.0187 40.192 13.72C39.808 13.2507 39.616 12.3333 39.616 10.968C39.616 10.2427 39.7013 9.47467 39.872 8.664C40.0427 7.85333 40.2987 7.10667 40.64 6.424C40.8107 6.168 40.96 5.93333 41.088 5.72C41.216 5.464 41.3653 5.22933 41.536 5.016C38.4213 5.144 35.3707 5.03733 32.384 4.696C29.3973 4.312 26.3893 4.12 23.36 4.12C21.6533 4.12 19.6907 4.29067 17.472 4.632C15.2533 4.97333 13.0773 5.528 10.944 6.296C8.81067 7.02133 6.976 8.04533 5.44 9.368C3.904 10.648 2.92267 12.248 2.496 14.168C2.45333 14.3387 2.41067 14.488 2.368 14.616C2.368 14.744 2.368 14.872 2.368 15C2.368 15.8107 2.60267 16.4933 3.072 17.048C3.584 17.6027 4.16 18.072 4.8 18.456C5.44 18.7973 5.93067 19.1173 6.272 19.416C6.57067 19.5867 6.72 19.7573 6.72 19.928C6.72 20.0987 6.61333 20.2053 6.4 20.248C6.22933 20.2907 6.016 20.2693 5.76 20.184ZM12.096 40.728C11.968 40.728 11.712 40.6853 11.328 40.6C10.944 40.5147 10.5813 40.408 10.24 40.28C9.89867 40.152 9.70667 40.0027 9.664 39.832C9.57867 38.9787 9.792 37.7627 10.304 36.184C10.8587 34.6053 11.584 32.856 12.48 30.936C13.4187 29.016 14.3787 27.1387 15.36 25.304C14.208 25.432 13.3333 25.496 12.736 25.496C12.3947 25.496 12.032 25.3467 11.648 25.048C11.3067 24.7493 11.136 24.344 11.136 23.832C11.136 23.4053 11.3707 23.0427 11.84 22.744C12.3093 22.4027 12.8213 22.1467 13.376 21.976C13.9733 21.8053 14.4 21.72 14.656 21.72C15.2107 21.72 15.5947 21.9333 15.808 22.36C16.0213 22.744 16.2347 22.936 16.448 22.936H16.704C17.344 21.7413 17.8987 20.6747 18.368 19.736C18.88 18.7973 19.2853 18.0507 19.584 17.496C19.9253 16.7707 20.096 16.1733 20.096 15.704C20.096 15.4907 20.0747 15.3413 20.032 15.256C20.032 15.128 20.0107 15.0213 19.968 14.936C20.0533 14.424 20.3733 13.7413 20.928 12.888C21.4827 12.0347 22.1653 11.1813 22.976 10.328C23.7867 9.47467 24.64 8.77066 25.536 8.216C26.4747 7.61866 27.3707 7.32 28.224 7.32C28.48 7.32 28.928 7.42666 29.568 7.64C30.208 7.81067 30.784 8.10933 31.296 8.536C31.808 8.96267 32.0213 9.51733 31.936 10.2C31.6373 9.98667 31.3813 9.88 31.168 9.88C30.016 9.88 28.7573 10.4987 27.392 11.736C26.0267 12.9733 24.64 14.5947 23.232 16.6C21.824 18.5627 20.48 20.6533 19.2 22.872C19.9253 22.7867 20.6507 22.7013 21.376 22.616C22.1013 22.5307 22.8267 22.424 23.552 22.296C25.088 22.0827 26.6667 21.8693 28.288 21.656C29.952 21.4427 31.5307 21.336 33.024 21.336C33.28 21.336 33.5573 21.3787 33.856 21.464C34.1547 21.5067 34.304 21.6133 34.304 21.784C34.304 21.8693 34.1973 21.9973 33.984 22.168C33.8133 22.296 33.472 22.4667 32.96 22.68C32.2773 22.936 31.0827 23.2133 29.376 23.512C27.6693 23.8107 25.7707 24.1093 23.68 24.408C21.632 24.664 19.6907 24.8987 17.856 25.112C16.7893 27.1173 15.8293 29.016 14.976 30.808C14.1227 32.5573 13.4827 33.9653 13.056 35.032C12.8853 35.4587 12.7573 35.8427 12.672 36.184C12.5867 36.5253 12.544 36.8027 12.544 37.016C12.544 37.6133 12.7573 37.912 13.184 37.912C13.4827 37.912 13.8027 37.8053 14.144 37.592C14.4853 37.336 14.8053 37.0373 15.104 36.696C15.5733 36.1413 16 35.6293 16.384 35.16C16.768 34.648 17.1093 34.4347 17.408 34.52C17.4507 34.5627 17.472 34.6267 17.472 34.712C17.472 34.968 17.344 35.2667 17.088 35.608C16.832 35.9493 16.6827 36.1413 16.64 36.184C16.2987 36.6107 15.872 37.1867 15.36 37.912C14.8907 38.6373 14.3787 39.2773 13.824 39.832C13.2693 40.4293 12.6933 40.728 12.096 40.728ZM44.883 39.768C44.1577 39.768 43.5177 39.5973 42.963 39.256C42.4083 38.9573 42.0243 38.36 41.811 37.464C41.683 36.9947 41.619 36.5253 41.619 36.056C41.619 34.776 41.939 33.5387 42.579 32.344C43.2617 31.1067 44.051 29.976 44.947 28.952C45.843 27.8853 46.611 26.9893 47.251 26.264C47.5923 25.9227 47.9763 25.4747 48.403 24.92C48.8723 24.3653 49.107 23.8107 49.107 23.256C49.107 22.9147 48.9363 22.5947 48.595 22.296C48.2537 21.9547 47.635 21.72 46.739 21.592C46.227 21.5067 45.7363 21.4427 45.267 21.4C44.8403 21.3147 44.3923 21.272 43.923 21.272C42.7283 22.8933 41.555 24.536 40.403 26.2C39.2937 27.8213 38.099 29.4213 36.819 31C36.5203 31.2987 36.2643 31.448 36.051 31.448C35.795 31.448 35.667 31.32 35.667 31.064C35.667 30.808 35.795 30.552 36.051 30.296C38.355 27.48 40.339 24.472 42.003 21.272C41.7897 21.272 41.4697 21.272 41.043 21.272C40.6163 21.2293 40.275 21.1867 40.019 21.144C39.7203 21.0587 39.4857 20.9307 39.315 20.76C39.1443 20.5893 39.059 20.4187 39.059 20.248C39.059 19.992 39.1657 19.8427 39.379 19.8C39.9337 19.6293 40.531 19.3733 41.171 19.032C41.811 18.6907 42.4083 18.2427 42.963 17.688C43.5603 17.0907 44.115 16.472 44.627 15.832C45.139 15.1493 45.5443 14.6373 45.843 14.296C46.1417 14.0827 46.4617 13.976 46.803 13.976C47.0163 13.976 47.2083 14.04 47.379 14.168C47.5923 14.296 47.699 14.488 47.699 14.744C47.699 15.0427 47.571 15.4267 47.315 15.896C46.931 16.4933 46.5043 17.1547 46.035 17.88C45.6083 18.6053 45.203 19.2667 44.819 19.864C45.587 19.9067 46.355 19.9493 47.123 19.992C47.891 20.0347 48.6803 20.056 49.491 20.056C49.9177 20.056 50.323 20.056 50.707 20.056C51.1337 20.0133 51.5603 19.992 51.987 19.992C53.267 19.992 53.907 20.312 53.907 20.952C53.907 21.3787 53.6723 21.912 53.203 22.552C52.7763 23.1493 52.243 23.8107 51.603 24.536C50.1523 26.2 48.915 27.9493 47.891 29.784C46.867 31.6187 46.1843 33.0267 45.843 34.008C45.5017 35.032 45.331 35.8 45.331 36.312C45.331 37.336 45.7363 37.848 46.547 37.848C47.2723 37.848 48.147 37.4853 49.171 36.76C50.2377 36.0347 51.3257 35.16 52.435 34.136C53.5443 33.0693 54.547 32.0453 55.443 31.064C56.339 30.04 56.979 29.272 57.363 28.76C57.4483 28.632 57.5763 28.568 57.747 28.568C57.9177 28.568 58.067 28.6533 58.195 28.824C58.323 28.952 58.323 29.1227 58.195 29.336C57.7257 30.0613 57.043 30.9787 56.147 32.088C55.251 33.1547 54.2483 34.2213 53.139 35.288C52.0297 36.3547 50.9417 37.272 49.875 38.04C49.3203 38.4667 48.5523 38.8507 47.571 39.192C46.6323 39.576 45.7363 39.768 44.883 39.768ZM62.384 39.96C60.464 39.96 58.8 39.512 57.392 38.616C55.984 37.72 55.28 36.3547 55.28 34.52C55.28 33.5387 55.5787 32.344 56.176 30.936C56.6027 29.9547 57.392 28.824 58.544 27.544C59.696 26.264 61.04 25.0267 62.576 23.832C64.112 22.5947 65.6693 21.592 67.248 20.824C68.8267 20.0133 70.256 19.608 71.536 19.608C72.0053 19.608 72.432 19.672 72.816 19.8C73.5413 20.056 74.032 20.4613 74.288 21.016C74.5867 21.5707 74.736 22.1467 74.736 22.744C74.736 23.2987 74.6507 23.832 74.48 24.344C74.3093 24.856 74.096 25.304 73.84 25.688C73.072 26.84 71.9627 27.864 70.512 28.76C69.104 29.656 67.6533 30.36 66.16 30.872C64.7093 31.384 63.5147 31.6827 62.576 31.768H62.448C61.8933 31.768 61.616 31.5973 61.616 31.256C61.616 31.0427 61.7867 30.936 62.128 30.936C63.152 30.8507 64.432 30.3813 65.968 29.528C67.5467 28.632 68.9333 27.7147 70.128 26.776C70.64 26.3493 71.2373 25.752 71.92 24.984C72.6453 24.216 73.008 23.4693 73.008 22.744C73.008 21.976 72.6453 21.592 71.92 21.592C71.536 21.592 71.1307 21.6773 70.704 21.848C70.32 22.0187 70 22.1467 69.744 22.232C68.5067 22.8293 67.1413 23.768 65.648 25.048C64.1547 26.2853 62.7893 27.6933 61.552 29.272C60.3573 30.808 59.5253 32.3653 59.056 33.944C58.928 34.2853 58.8427 34.6267 58.8 34.968C58.7573 35.2667 58.736 35.5653 58.736 35.864C58.736 36.888 59.056 37.6133 59.696 38.04C60.3787 38.4667 61.1893 38.68 62.128 38.68C63.536 38.68 64.9867 38.3813 66.48 37.784C67.9733 37.144 69.424 36.3333 70.832 35.352C72.24 34.3707 73.52 33.3253 74.672 32.216C75.8667 31.064 76.8693 29.9547 77.68 28.888C77.808 28.7173 77.9573 28.632 78.128 28.632C78.2987 28.5893 78.4053 28.6107 78.448 28.696C78.6187 28.7387 78.704 28.8667 78.704 29.08C78.704 29.2507 78.6613 29.4213 78.576 29.592C77.3813 31.256 75.9307 32.8773 74.224 34.456C72.56 36.0347 70.704 37.3573 68.656 38.424C66.6507 39.448 64.56 39.96 62.384 39.96ZM82.8215 39.96C80.9015 39.96 79.2375 39.512 77.8295 38.616C76.4215 37.72 75.7175 36.3547 75.7175 34.52C75.7175 33.5387 76.0162 32.344 76.6135 30.936C77.0402 29.9547 77.8295 28.824 78.9815 27.544C80.1335 26.264 81.4775 25.0267 83.0135 23.832C84.5495 22.5947 86.1068 21.592 87.6855 20.824C89.2642 20.0133 90.6935 19.608 91.9735 19.608C92.4428 19.608 92.8695 19.672 93.2535 19.8C93.9788 20.056 94.4695 20.4613 94.7255 21.016C95.0242 21.5707 95.1735 22.1467 95.1735 22.744C95.1735 23.2987 95.0882 23.832 94.9175 24.344C94.7468 24.856 94.5335 25.304 94.2775 25.688C93.5095 26.84 92.4002 27.864 90.9495 28.76C89.5415 29.656 88.0908 30.36 86.5975 30.872C85.1468 31.384 83.9522 31.6827 83.0135 31.768H82.8855C82.3308 31.768 82.0535 31.5973 82.0535 31.256C82.0535 31.0427 82.2242 30.936 82.5655 30.936C83.5895 30.8507 84.8695 30.3813 86.4055 29.528C87.9842 28.632 89.3708 27.7147 90.5655 26.776C91.0775 26.3493 91.6748 25.752 92.3575 24.984C93.0828 24.216 93.4455 23.4693 93.4455 22.744C93.4455 21.976 93.0828 21.592 92.3575 21.592C91.9735 21.592 91.5682 21.6773 91.1415 21.848C90.7575 22.0187 90.4375 22.1467 90.1815 22.232C88.9442 22.8293 87.5788 23.768 86.0855 25.048C84.5922 26.2853 83.2268 27.6933 81.9895 29.272C80.7948 30.808 79.9628 32.3653 79.4935 33.944C79.3655 34.2853 79.2802 34.6267 79.2375 34.968C79.1948 35.2667 79.1735 35.5653 79.1735 35.864C79.1735 36.888 79.4935 37.6133 80.1335 38.04C80.8162 38.4667 81.6268 38.68 82.5655 38.68C83.9735 38.68 85.4242 38.3813 86.9175 37.784C88.4108 37.144 89.8615 36.3333 91.2695 35.352C92.6775 34.3707 93.9575 33.3253 95.1095 32.216C96.3042 31.064 97.3068 29.9547 98.1175 28.888C98.2455 28.7173 98.3948 28.632 98.5655 28.632C98.7362 28.5893 98.8428 28.6107 98.8855 28.696C99.0562 28.7387 99.1415 28.8667 99.1415 29.08C99.1415 29.2507 99.0988 29.4213 99.0135 29.592C97.8188 31.256 96.3682 32.8773 94.6615 34.456C92.9975 36.0347 91.1415 37.3573 89.0935 38.424C87.0882 39.448 84.9975 39.96 82.8215 39.96ZM105.307 41.176C102.32 41.176 99.9737 40.664 98.267 39.64C96.5603 38.6587 95.707 37.2507 95.707 35.416C95.707 33.5387 96.2617 31.8107 97.371 30.232C98.4803 28.6107 99.9097 27.224 101.659 26.072C103.451 24.8773 105.307 23.96 107.227 23.32C109.19 22.6373 111.003 22.296 112.667 22.296C113.52 22.296 113.947 22.424 113.947 22.68C113.947 23.064 113.499 23.256 112.603 23.256C111.024 23.256 109.296 23.64 107.419 24.408C105.584 25.176 103.942 26.2427 102.491 27.608C101.339 28.632 100.464 29.6773 99.867 30.744C99.3123 31.768 99.035 32.728 99.035 33.624C99.035 34.9467 99.6537 36.056 100.891 36.952C102.128 37.8053 103.984 38.232 106.459 38.232C107.91 38.232 109.382 38.1253 110.875 37.912C112.368 37.656 113.712 37.3787 114.907 37.08C116.144 36.7813 117.083 36.5467 117.723 36.376C119.302 35.864 120.88 35.2453 122.459 34.52C124.08 33.7947 125.531 32.984 126.811 32.088C128.091 31.1493 129.03 30.2107 129.627 29.272C129.968 28.76 130.203 28.2693 130.331 27.8C130.502 27.3307 130.587 26.8827 130.587 26.456C130.587 25.2613 130.054 24.2587 128.987 23.448C127.92 22.5947 126.555 21.8267 124.891 21.144C123.227 20.4613 121.456 19.8213 119.579 19.224C117.702 18.584 115.931 17.9227 114.267 17.24C112.603 16.5573 111.238 15.7893 110.171 14.936C109.104 14.04 108.571 12.9733 108.571 11.736C108.571 10.328 109.083 9.06933 110.107 7.96C111.174 6.808 112.518 5.80533 114.139 4.952C115.803 4.056 117.574 3.33066 119.451 2.776C121.328 2.17866 123.12 1.73066 124.827 1.432C126.534 1.13333 127.942 0.983997 129.051 0.983997C133.744 0.983997 136.091 2.15733 136.091 4.504C136.091 5.44267 135.707 6.53067 134.939 7.768C134.598 8.408 134.107 9.02667 133.467 9.624C132.827 10.1787 132.336 10.456 131.995 10.456C131.739 10.456 131.611 10.3067 131.611 10.008C131.611 9.88 131.846 9.624 132.315 9.24C132.784 8.81333 133.254 8.30133 133.723 7.704C134.192 7.10667 134.427 6.50933 134.427 5.912C134.427 5.016 133.915 4.33333 132.891 3.864C131.91 3.39467 130.608 3.16 128.987 3.16C128.219 3.16 127.11 3.288 125.659 3.544C124.208 3.75733 122.63 4.12 120.923 4.632C119.216 5.144 117.574 5.82667 115.995 6.68C113.051 8.30133 111.579 9.688 111.579 10.84C111.579 11.6933 112.411 12.504 114.075 13.272C115.312 13.8267 116.742 14.4027 118.363 15C119.984 15.5973 121.627 16.2373 123.291 16.92C124.955 17.6027 126.491 18.3707 127.899 19.224C129.35 20.0773 130.502 21.0373 131.355 22.104C132.251 23.128 132.699 24.3013 132.699 25.624C132.699 27.416 131.718 29.2507 129.755 31.128C128.219 32.5787 126.427 33.9227 124.379 35.16C122.374 36.3973 120.24 37.464 117.979 38.36C115.76 39.256 113.563 39.9387 111.387 40.408C109.211 40.92 107.184 41.176 105.307 41.176ZM138.384 39.64C137.616 39.64 136.912 39.4693 136.272 39.128C135.674 38.7867 135.226 38.1467 134.928 37.208C134.885 37.08 134.842 36.952 134.799 36.824C134.799 36.696 134.799 36.5467 134.799 36.376C134.799 35.5227 134.992 34.456 135.376 33.176C135.76 31.896 136.229 30.6587 136.784 29.464C136.528 29.8053 136.229 30.232 135.888 30.744C135.546 31.2133 135.056 31.832 134.416 32.6C134.245 32.7707 134.053 32.856 133.84 32.856C133.541 32.856 133.392 32.6853 133.392 32.344C133.392 32.088 133.477 31.8747 133.648 31.704C134.757 30.296 135.738 29.0373 136.592 27.928C137.488 26.8187 138.149 25.88 138.576 25.112C138.576 25.0267 138.704 24.7707 138.96 24.344C139.216 23.8747 139.557 23.2347 139.984 22.424C139.642 22.4667 139.344 22.5093 139.088 22.552C138.874 22.552 138.682 22.552 138.512 22.552C138.213 22.552 137.957 22.424 137.744 22.168C137.53 21.912 137.509 21.592 137.68 21.208C137.893 20.6107 138.362 20.2693 139.088 20.184C139.813 20.0987 140.453 20.0347 141.008 19.992C141.05 19.9067 141.136 19.864 141.264 19.864C141.776 18.9253 142.266 18.008 142.736 17.112C143.205 16.216 143.589 15.4693 143.888 14.872C144.229 14.2747 144.4 13.9547 144.4 13.912C145.253 12.5467 145.808 11.6507 146.064 11.224C146.32 10.7547 146.661 10.4773 147.088 10.392C147.557 10.3493 148.048 10.3707 148.56 10.456C149.114 10.5413 149.477 10.7333 149.648 11.032C149.776 11.2027 149.84 11.416 149.84 11.672C149.84 12.056 149.754 12.44 149.583 12.824C149.413 13.1653 149.242 13.4427 149.072 13.656C148.901 13.9547 148.666 14.168 148.368 14.296C148.112 14.3813 147.877 14.6373 147.664 15.064C147.237 15.8747 146.768 16.7493 146.256 17.688C145.744 18.6267 145.21 19.5227 144.656 20.376L145.424 20.312C146.448 20.2267 147.408 20.12 148.304 19.992C149.242 19.864 150.309 19.8213 151.503 19.864C151.717 19.864 151.93 19.9067 152.144 19.992C152.4 20.0347 152.528 20.12 152.528 20.248C152.528 20.4187 151.973 20.6533 150.864 20.952C150.437 21.1227 149.498 21.3147 148.048 21.528C146.64 21.6987 145.189 21.8693 143.696 22.04C143.269 22.8507 142.885 23.5333 142.544 24.088C142.202 24.6 141.968 24.984 141.84 25.24C140.901 27.2027 140.048 28.9947 139.28 30.616C138.554 32.1947 138.149 33.496 138.064 34.52C138.021 34.6907 138 34.8613 138 35.032C138 35.16 138 35.3093 138 35.48C138 37.1867 138.554 38.04 139.664 38.04C140.346 38.04 141.221 37.6773 142.288 36.952C143.354 36.184 144.442 35.2667 145.552 34.2C146.661 33.0907 147.664 32.0453 148.56 31.064C149.498 30.04 150.138 29.272 150.48 28.76C150.608 28.632 150.736 28.568 150.864 28.568C151.034 28.568 151.162 28.632 151.248 28.76C151.376 28.888 151.397 29.0587 151.312 29.272C150.928 29.9973 150.266 30.9147 149.328 32.024C148.432 33.0907 147.408 34.1787 146.256 35.288C145.146 36.3547 144.058 37.272 142.992 38.04C142.437 38.4667 141.733 38.8293 140.88 39.128C140.069 39.4693 139.237 39.64 138.384 39.64ZM158.133 39.768C157.408 39.768 156.768 39.5973 156.213 39.256C155.658 38.9573 155.274 38.36 155.061 37.464C154.933 36.9947 154.869 36.5253 154.869 36.056C154.869 34.776 155.189 33.5387 155.829 32.344C156.512 31.1067 157.301 29.976 158.197 28.952C159.093 27.8853 159.861 26.9893 160.501 26.264C160.842 25.9227 161.226 25.4747 161.653 24.92C162.122 24.3653 162.357 23.8107 162.357 23.256C162.357 22.9147 162.186 22.5947 161.845 22.296C161.504 21.9547 160.885 21.72 159.989 21.592C159.477 21.5067 158.986 21.4427 158.517 21.4C158.09 21.3147 157.642 21.272 157.173 21.272C155.978 22.8933 154.805 24.536 153.653 26.2C152.544 27.8213 151.349 29.4213 150.069 31C149.77 31.2987 149.514 31.448 149.301 31.448C149.045 31.448 148.917 31.32 148.917 31.064C148.917 30.808 149.045 30.552 149.301 30.296C151.605 27.48 153.589 24.472 155.253 21.272C155.04 21.272 154.72 21.272 154.293 21.272C153.866 21.2293 153.525 21.1867 153.269 21.144C152.97 21.0587 152.736 20.9307 152.565 20.76C152.394 20.5893 152.309 20.4187 152.309 20.248C152.309 19.992 152.416 19.8427 152.629 19.8C153.184 19.6293 153.781 19.3733 154.421 19.032C155.061 18.6907 155.658 18.2427 156.213 17.688C156.81 17.0907 157.365 16.472 157.877 15.832C158.389 15.1493 158.794 14.6373 159.093 14.296C159.392 14.0827 159.712 13.976 160.053 13.976C160.266 13.976 160.458 14.04 160.629 14.168C160.842 14.296 160.949 14.488 160.949 14.744C160.949 15.0427 160.821 15.4267 160.565 15.896C160.181 16.4933 159.754 17.1547 159.285 17.88C158.858 18.6053 158.453 19.2667 158.069 19.864C158.837 19.9067 159.605 19.9493 160.373 19.992C161.141 20.0347 161.93 20.056 162.741 20.056C163.168 20.056 163.573 20.056 163.957 20.056C164.384 20.0133 164.81 19.992 165.237 19.992C166.517 19.992 167.157 20.312 167.157 20.952C167.157 21.3787 166.922 21.912 166.453 22.552C166.026 23.1493 165.493 23.8107 164.853 24.536C163.402 26.2 162.165 27.9493 161.141 29.784C160.117 31.6187 159.434 33.0267 159.093 34.008C158.752 35.032 158.581 35.8 158.581 36.312C158.581 37.336 158.986 37.848 159.797 37.848C160.522 37.848 161.397 37.4853 162.421 36.76C163.488 36.0347 164.576 35.16 165.685 34.136C166.794 33.0693 167.797 32.0453 168.693 31.064C169.589 30.04 170.229 29.272 170.613 28.76C170.698 28.632 170.826 28.568 170.997 28.568C171.168 28.568 171.317 28.6533 171.445 28.824C171.573 28.952 171.573 29.1227 171.445 29.336C170.976 30.0613 170.293 30.9787 169.397 32.088C168.501 33.1547 167.498 34.2213 166.389 35.288C165.28 36.3547 164.192 37.272 163.125 38.04C162.57 38.4667 161.802 38.8507 160.821 39.192C159.882 39.576 158.986 39.768 158.133 39.768ZM175.634 39.96C173.714 39.96 172.05 39.512 170.642 38.616C169.234 37.72 168.53 36.3547 168.53 34.52C168.53 33.5387 168.829 32.344 169.426 30.936C169.853 29.9547 170.642 28.824 171.794 27.544C172.946 26.264 174.29 25.0267 175.826 23.832C177.362 22.5947 178.919 21.592 180.498 20.824C182.077 20.0133 183.506 19.608 184.786 19.608C185.255 19.608 185.682 19.672 186.066 19.8C186.791 20.056 187.282 20.4613 187.538 21.016C187.837 21.5707 187.986 22.1467 187.986 22.744C187.986 23.2987 187.901 23.832 187.73 24.344C187.559 24.856 187.346 25.304 187.09 25.688C186.322 26.84 185.213 27.864 183.762 28.76C182.354 29.656 180.903 30.36 179.41 30.872C177.959 31.384 176.765 31.6827 175.826 31.768H175.698C175.143 31.768 174.866 31.5973 174.866 31.256C174.866 31.0427 175.037 30.936 175.378 30.936C176.402 30.8507 177.682 30.3813 179.218 29.528C180.797 28.632 182.183 27.7147 183.378 26.776C183.89 26.3493 184.487 25.752 185.17 24.984C185.895 24.216 186.258 23.4693 186.258 22.744C186.258 21.976 185.895 21.592 185.17 21.592C184.786 21.592 184.381 21.6773 183.954 21.848C183.57 22.0187 183.25 22.1467 182.994 22.232C181.757 22.8293 180.391 23.768 178.898 25.048C177.405 26.2853 176.039 27.6933 174.802 29.272C173.607 30.808 172.775 32.3653 172.306 33.944C172.178 34.2853 172.093 34.6267 172.05 34.968C172.007 35.2667 171.986 35.5653 171.986 35.864C171.986 36.888 172.306 37.6133 172.946 38.04C173.629 38.4667 174.439 38.68 175.378 38.68C176.786 38.68 178.237 38.3813 179.73 37.784C181.223 37.144 182.674 36.3333 184.082 35.352C185.49 34.3707 186.77 33.3253 187.922 32.216C189.117 31.064 190.119 29.9547 190.93 28.888C191.058 28.7173 191.207 28.632 191.378 28.632C191.549 28.5893 191.655 28.6107 191.698 28.696C191.869 28.7387 191.954 28.8667 191.954 29.08C191.954 29.2507 191.911 29.4213 191.826 29.592C190.631 31.256 189.181 32.8773 187.474 34.456C185.81 36.0347 183.954 37.3573 181.906 38.424C179.901 39.448 177.81 39.96 175.634 39.96ZM208.104 39.64C207.378 39.64 206.696 39.4693 206.056 39.128C205.458 38.7867 205.01 38.1467 204.712 37.208C204.584 36.824 204.52 36.2907 204.52 35.608C204.52 34.6693 204.648 33.624 204.904 32.472C205.16 31.32 205.437 30.3387 205.736 29.528C205.522 29.6133 205.117 29.9973 204.52 30.68C203.965 31.32 203.261 32.1093 202.408 33.048C201.597 33.944 200.68 34.8613 199.656 35.8C198.674 36.696 197.65 37.4427 196.584 38.04C195.517 38.6373 194.472 38.936 193.448 38.936C192.765 38.936 192.04 38.744 191.272 38.36C190.504 37.9333 189.885 37.4 189.416 36.76C188.776 35.9067 188.456 35.032 188.456 34.136C188.456 32.984 188.84 31.7893 189.608 30.552C190.418 29.3147 191.442 28.12 192.68 26.968C193.96 25.7733 195.304 24.7067 196.712 23.768C198.162 22.7867 199.528 21.976 200.808 21.336C202.13 20.6533 203.197 20.2053 204.008 19.992C204.861 19.736 205.821 19.608 206.888 19.608C207.485 19.608 208.104 19.6933 208.744 19.864C209.384 19.992 209.917 20.2267 210.344 20.568C210.685 20.7387 210.962 20.9733 211.176 21.272C211.389 21.5707 211.496 21.8907 211.496 22.232C211.496 22.5733 211.346 22.68 211.048 22.552C210.706 22.04 210.237 21.72 209.64 21.592C209.085 21.4213 208.509 21.336 207.912 21.336C206.205 21.336 204.328 21.8907 202.28 23C200.232 24.1093 198.397 25.4107 196.776 26.904C196.264 27.3307 195.56 28.0773 194.664 29.144C193.81 30.168 193.021 31.2987 192.296 32.536C191.57 33.7733 191.208 34.904 191.208 35.928C191.208 36.4827 191.357 36.9733 191.656 37.4C191.826 37.6987 192.104 37.848 192.488 37.848C193.085 37.848 193.874 37.528 194.856 36.888C195.88 36.248 196.925 35.48 197.992 34.584C199.058 33.6453 200.018 32.7493 200.872 31.896C201.768 31.0427 202.408 30.424 202.792 30.04C203.005 29.8267 203.41 29.4 204.008 28.76C204.648 28.0773 205.33 27.352 206.056 26.584C206.781 25.816 207.421 25.1547 207.976 24.6C208.573 24.0453 208.957 23.768 209.128 23.768C209.341 23.768 209.682 23.832 210.152 23.96C210.664 24.0453 211.09 24.1947 211.432 24.408C211.773 24.6213 211.837 24.8987 211.624 25.24C210.514 26.8613 209.618 28.568 208.936 30.36C208.296 32.1093 207.912 33.496 207.784 34.52C207.741 34.6907 207.72 34.8613 207.72 35.032C207.72 35.16 207.72 35.3093 207.72 35.48C207.72 37.1867 208.317 38.04 209.512 38.04C210.152 38.04 211.005 37.656 212.072 36.888C213.138 36.12 214.226 35.2027 215.336 34.136C216.445 33.0693 217.448 32.0453 218.344 31.064C219.282 30.04 219.922 29.272 220.264 28.76C220.392 28.632 220.52 28.568 220.648 28.568C220.818 28.568 220.968 28.6533 221.096 28.824C221.224 28.952 221.224 29.1227 221.096 29.336C220.626 30.104 219.944 31.0213 219.048 32.088C218.152 33.1547 217.149 34.2213 216.04 35.288C214.93 36.3547 213.842 37.272 212.776 38.04C212.221 38.4667 211.517 38.8293 210.664 39.128C209.81 39.4693 208.957 39.64 208.104 39.64ZM218.16 39.832C217.818 39.832 217.712 39.6827 217.84 39.384C218.01 39.0853 218.309 38.3387 218.736 37.144C219.205 35.9067 219.717 34.456 220.272 32.792C220.869 31.128 221.445 29.528 222 27.992C221.573 28.632 221.104 29.2507 220.592 29.848C220.122 30.4453 219.717 30.936 219.376 31.32C219.248 31.448 219.162 31.512 219.12 31.512C218.992 31.512 218.928 31.384 218.928 31.128C218.928 30.616 219.056 30.1467 219.312 29.72C220.208 28.568 220.89 27.672 221.36 27.032C221.829 26.3493 222.213 25.752 222.512 25.24C222.853 24.6853 223.194 24.0667 223.536 23.384C223.621 22.9147 223.77 22.3387 223.984 21.656C224.24 20.9733 224.816 20.632 225.712 20.632C227.034 20.632 227.696 20.9093 227.696 21.464C227.696 21.6347 227.653 21.8267 227.568 22.04C227.482 22.2107 227.397 22.4027 227.312 22.616C226.8 23.768 226.245 25.0907 225.648 26.584C225.05 28.0773 224.496 29.4853 223.984 30.808C223.514 32.1307 223.152 33.1547 222.896 33.88C223.365 33.2827 224.069 32.4507 225.008 31.384C225.946 30.2747 227.013 29.08 228.208 27.8C229.445 26.4773 230.704 25.24 231.984 24.088C233.306 22.8933 234.544 21.912 235.696 21.144C236.848 20.376 237.829 19.992 238.64 19.992C239.621 19.992 240.112 20.5467 240.112 21.656C240.112 22.5093 239.77 23.6187 239.088 24.984C238.789 25.624 238.384 26.4987 237.872 27.608C237.36 28.6747 236.954 29.4853 236.656 30.04C237.424 29.3573 238.298 28.6107 239.28 27.8C240.261 26.9467 241.285 26.1573 242.352 25.432C243.461 24.7067 244.485 24.1733 245.424 23.832C245.637 23.7467 246.064 23.6187 246.704 23.448C247.344 23.2347 247.898 23.128 248.368 23.128C249.008 23.128 249.328 23.3413 249.328 23.768C249.328 24.0667 249.178 24.3867 248.88 24.728C248.154 25.8373 247.493 27.032 246.896 28.312C246.341 29.5493 245.893 30.7227 245.552 31.832C245.21 32.9413 244.997 33.8373 244.912 34.52C244.869 34.6907 244.848 34.8613 244.848 35.032C244.848 35.16 244.848 35.3093 244.848 35.48C244.848 37.1867 245.402 38.04 246.512 38.04C247.194 38.04 248.069 37.6773 249.136 36.952C250.202 36.184 251.29 35.2667 252.4 34.2C253.509 33.0907 254.512 32.0453 255.408 31.064C256.346 30.04 256.986 29.272 257.328 28.76C257.456 28.632 257.584 28.568 257.712 28.568C257.882 28.568 258.01 28.632 258.096 28.76C258.224 28.888 258.245 29.0587 258.16 29.272C257.776 29.9973 257.114 30.9147 256.176 32.024C255.28 33.0907 254.256 34.1787 253.104 35.288C251.994 36.3547 250.906 37.272 249.84 38.04C249.285 38.4667 248.581 38.8293 247.728 39.128C246.917 39.4693 246.085 39.64 245.232 39.64C244.464 39.64 243.76 39.4693 243.12 39.128C242.522 38.7867 242.074 38.1467 241.776 37.208C241.648 36.824 241.584 36.3333 241.584 35.736C241.584 34.7973 241.712 33.7307 241.968 32.536C242.224 31.3413 242.501 30.3387 242.8 29.528C243.013 28.9307 243.29 28.2693 243.632 27.544C244.016 26.776 244.357 26.136 244.656 25.624C243.333 26.136 242.053 26.904 240.816 27.928C239.578 28.952 238.448 29.9973 237.424 31.064C236.442 32.088 235.61 32.9413 234.928 33.624C234.757 34.0933 234.416 34.4773 233.904 34.776C233.434 35.0747 232.986 35.224 232.56 35.224C231.92 35.224 231.6 34.9467 231.6 34.392C231.6 34.1787 231.664 33.9227 231.792 33.624C232.218 32.6 232.688 31.5547 233.2 30.488C233.754 29.3787 234.245 28.376 234.672 27.48C235.141 26.584 235.461 25.9653 235.632 25.624C235.973 25.0267 236.144 24.5573 236.144 24.216C236.144 23.8747 235.994 23.704 235.696 23.704C235.397 23.704 234.906 23.896 234.224 24.28C233.541 24.664 232.645 25.3467 231.536 26.328C230.64 27.1387 229.658 28.2053 228.592 29.528C227.525 30.808 226.501 32.1307 225.52 33.496C224.538 34.8613 223.664 36.0347 222.896 37.016C222.17 37.9973 221.658 38.5733 221.36 38.744C221.104 38.872 220.592 39.0853 219.824 39.384C219.098 39.6827 218.544 39.832 218.16 39.832Z" fill="url(#paint0_linear_5_50)"/>
<defs>
<linearGradient id="paint0_linear_5_50" x1="0" y1="28" x2="254" y2="28" gradientUnits="userSpaceOnUse">
<stop stop-color="#FF0000"/>
<stop offset="1" stop-color="#FF00D6"/>
</linearGradient>
</defs>
</svg>
