<svg width="48" height="48" viewBox="0 0 48 48" fill="none" xmlns="http://www.w3.org/2000/svg">
<path d="M45 35.073L42 33.573V30C41.9964 27.8751 41.2416 25.8199 39.8692 24.1977C38.4967 22.5754 36.5949 21.4906 34.5 21.135V18H31.5V21.135C29.4051 21.4906 27.5033 22.5754 26.1308 24.1977C24.7584 25.8199 24.0036 27.8751 24 30V33.573L21 35.073V42H30V45H36V42H45V35.073ZM42 39H24V36.927L27 35.427V30C27 28.4087 27.6321 26.8826 28.7574 25.7574C29.8826 24.6321 31.4087 24 33 24C34.5913 24 36.1174 24.6321 37.2426 25.7574C38.3679 26.8826 39 28.4087 39 30V35.427L42 36.927V39Z" fill="white"/>
<path d="M42 9C42 8.20435 41.6839 7.44129 41.1213 6.87868C40.5587 6.31607 39.7957 6 39 6H33V3H30V6H18V3H15V6H9C8.20435 6 7.44129 6.31607 6.87868 6.87868C6.31607 7.44129 6 8.20435 6 9V39C6 39.7957 6.31607 40.5587 6.87868 41.1213C7.44129 41.6839 8.20435 42 9 42H15V39H9V9H15V12H18V9H30V12H33V9H39V18H42V9Z" fill="white"/>
</svg>
