<svg width="64" height="65" viewBox="0 0 64 65" fill="none" xmlns="http://www.w3.org/2000/svg">
<path d="M45.9994 46.4994L36.831 37.331M36.831 37.331C38.3993 35.7627 39.6433 33.9009 40.4921 31.8518C41.3409 29.8027 41.7777 27.6065 41.7777 25.3886C41.7777 23.1707 41.3409 20.9745 40.4921 18.9254C39.6433 16.8763 38.3993 15.0145 36.831 13.4462C35.2627 11.8779 33.4009 10.6338 31.3518 9.78506C29.3027 8.9363 27.1065 8.49945 24.8886 8.49945C22.6707 8.49945 20.4745 8.9363 18.4254 9.78506C16.3763 10.6338 14.5145 11.8779 12.9462 13.4462C9.77884 16.6135 7.99945 20.9093 7.99945 25.3886C7.99945 29.8679 9.77884 34.1637 12.9462 37.331C16.1135 40.4983 20.4093 42.2777 24.8886 42.2777C29.3679 42.2777 33.6637 40.4983 36.831 37.331Z" stroke="#706666" stroke-width="4" stroke-linecap="round" stroke-linejoin="round"/>
</svg>
